<?xml version="1.0" standalone="no"?>
<!DOCTYPE svg PUBLIC "-//W3C//DTD SVG 20010904//EN"
 "http://www.w3.org/TR/2001/REC-SVG-20010904/DTD/svg10.dtd">
<svg version="1.0" xmlns="http://www.w3.org/2000/svg"
 width="1000.000000pt" height="1000.000000pt" viewBox="0 0 1000.000000 1000.000000"
 preserveAspectRatio="xMidYMid meet">
<metadata>
Created by potrace 1.11, written by Peter Selinger 2001-2013
</metadata>
<g transform="translate(0.000000,1000.000000) scale(0.100000,-0.100000)"
fill="#000000" stroke="none">
<path d="M4585 9994 c-16 -2 -79 -9 -140 -15 -147 -15 -374 -52 -542 -89
-1263 -281 -2379 -1054 -3096 -2145 -430 -655 -688 -1372 -789 -2195 -18 -145
-18 -945 0 -1090 143 -1161 614 -2151 1407 -2958 619 -631 1373 -1079 2216
-1316 704 -198 1467 -238 2194 -115 1366 231 2582 1028 3348 2194 1089 1658
1089 3822 0 5480 -185 280 -377 519 -618 763 -259 265 -490 457 -790 657 -596
398 -1245 656 -1940 774 -292 49 -343 53 -790 56 -236 2 -443 1 -460 -1z m737
-245 c1404 -96 2662 -779 3508 -1904 1265 -1682 1265 -4028 0 -5710 -159 -212
-253 -319 -455 -520 -468 -467 -983 -808 -1590 -1052 -1514 -609 -3259 -394
-4573 565 -207 150 -373 293 -567 487 -202 201 -296 308 -455 520 -867 1154
-1162 2660 -794 4065 437 1670 1750 2977 3426 3410 482 124 1010 173 1500 139z"/>
<path d="M4675 9679 c-1320 -99 -2515 -729 -3338 -1757 -534 -667 -883 -1488
-987 -2321 -142 -1137 109 -2240 727 -3185 291 -445 690 -869 1129 -1199 1216
-913 2844 -1172 4299 -683 476 160 926 395 1309 683 356 268 701 613 969 969
468 623 787 1411 887 2188 144 1130 -109 2245 -727 3190 -291 445 -690 869
-1129 1199 -632 474 -1440 798 -2224 892 -294 34 -650 44 -915 24z m1800
-1710 c171 -299 175 -308 120 -309 -38 0 -203 -50 -301 -91 -241 -100 -488
-274 -723 -507 -394 -393 -660 -815 -764 -1217 -66 -251 -61 -88 -64 -2278
l-4 -1987 -304 0 -305 0 0 3315 0 3315 305 0 305 0 1 -712 c0 -516 3 -706 11
-688 274 639 732 1084 1448 1406 52 24 98 43 102 43 3 1 81 -130 173 -290z"/>
</g>
</svg>
